<mxfile host="65bd71144e" modified="2021-03-10T11:13:27.612Z" agent="5.0 (Macintosh; Intel Mac OS X 10_15_7) AppleWebKit/537.36 (KHTML, like Gecko) Code/1.54.0 Chrome/87.0.4280.141 Electron/11.3.0 Safari/537.36" etag="d3jfoWbZo0L0T4Az9SHx" version="14.2.4" type="embed">
    <diagram id="QCBPmzjnCGmRcswznW8n" name="Page-1">
        <mxGraphModel dx="1477" dy="775" grid="1" gridSize="10" guides="1" tooltips="1" connect="1" arrows="1" fold="1" page="1" pageScale="1" pageWidth="850" pageHeight="1100" math="0" shadow="0">
            <root>
                <mxCell id="0"/>
                <mxCell id="1" parent="0"/>
                <mxCell id="747YwQ7zbLFgy_TnoXMY-12" value="objects_ids" style="swimlane;html=1;childLayout=stackLayout;resizeParent=1;resizeParentMax=0;startSize=20;fillColor=#0050ef;strokeColor=#001DBC;fontColor=#ffffff;" parent="1" vertex="1">
                    <mxGeometry x="100" y="560" width="240" height="160" as="geometry"/>
                </mxCell>
                <mxCell id="747YwQ7zbLFgy_TnoXMY-14" value="objID (index)" style="swimlane;html=1;startSize=20;fillColor=#ffe6cc;strokeColor=#d79b00;swimlaneFillColor=#FFE6CC;fontColor=#000000;" parent="747YwQ7zbLFgy_TnoXMY-12" vertex="1">
                    <mxGeometry y="20" width="120" height="140" as="geometry"/>
                </mxCell>
                <mxCell id="747YwQ7zbLFgy_TnoXMY-22" value="1" style="text;html=1;resizable=0;points=[];autosize=1;align=left;verticalAlign=top;spacingTop=-4;fontColor=#000000;" parent="747YwQ7zbLFgy_TnoXMY-14" vertex="1">
                    <mxGeometry x="45" y="30" width="20" height="20" as="geometry"/>
                </mxCell>
                <mxCell id="747YwQ7zbLFgy_TnoXMY-23" value="2" style="text;html=1;resizable=0;points=[];autosize=1;align=left;verticalAlign=top;spacingTop=-4;fontColor=#000000;" parent="747YwQ7zbLFgy_TnoXMY-14" vertex="1">
                    <mxGeometry x="45" y="55" width="20" height="20" as="geometry"/>
                </mxCell>
                <mxCell id="747YwQ7zbLFgy_TnoXMY-24" value="3" style="text;html=1;resizable=0;points=[];autosize=1;align=left;verticalAlign=top;spacingTop=-4;fontColor=#000000;" parent="747YwQ7zbLFgy_TnoXMY-14" vertex="1">
                    <mxGeometry x="45" y="80" width="20" height="20" as="geometry"/>
                </mxCell>
                <mxCell id="747YwQ7zbLFgy_TnoXMY-25" value="..." style="text;html=1;resizable=0;points=[];autosize=1;align=left;verticalAlign=top;spacingTop=-4;fontColor=#000000;" parent="747YwQ7zbLFgy_TnoXMY-14" vertex="1">
                    <mxGeometry x="45" y="105" width="30" height="20" as="geometry"/>
                </mxCell>
                <mxCell id="747YwQ7zbLFgy_TnoXMY-15" value="externalIDs" style="swimlane;html=1;startSize=20;fillColor=#dae8fc;strokeColor=#6c8ebf;labelBackgroundColor=none;swimlaneFillColor=#DAE8FC;fontColor=#000000;" parent="747YwQ7zbLFgy_TnoXMY-12" vertex="1">
                    <mxGeometry x="120" y="20" width="120" height="140" as="geometry"/>
                </mxCell>
                <mxCell id="747YwQ7zbLFgy_TnoXMY-17" value="{48173}" style="text;html=1;resizable=0;points=[];autosize=1;align=left;verticalAlign=top;spacingTop=-4;fontColor=#000000;" parent="747YwQ7zbLFgy_TnoXMY-15" vertex="1">
                    <mxGeometry x="20" y="30" width="60" height="20" as="geometry"/>
                </mxCell>
                <mxCell id="747YwQ7zbLFgy_TnoXMY-19" value="{5671}" style="text;html=1;resizable=0;points=[];autosize=1;align=left;verticalAlign=top;spacingTop=-4;fontColor=#000000;" parent="747YwQ7zbLFgy_TnoXMY-15" vertex="1">
                    <mxGeometry x="20" y="55" width="50" height="20" as="geometry"/>
                </mxCell>
                <mxCell id="747YwQ7zbLFgy_TnoXMY-18" value="{176}" style="text;html=1;resizable=0;points=[];autosize=1;align=left;verticalAlign=top;spacingTop=-4;fontColor=#000000;" parent="747YwQ7zbLFgy_TnoXMY-15" vertex="1">
                    <mxGeometry x="20" y="80" width="40" height="20" as="geometry"/>
                </mxCell>
                <mxCell id="747YwQ7zbLFgy_TnoXMY-20" value="..." style="text;html=1;resizable=0;points=[];autosize=1;align=left;verticalAlign=top;spacingTop=-4;fontColor=#000000;" parent="747YwQ7zbLFgy_TnoXMY-15" vertex="1">
                    <mxGeometry x="20" y="105" width="30" height="20" as="geometry"/>
                </mxCell>
                <mxCell id="747YwQ7zbLFgy_TnoXMY-27" value="objects_attrs" style="swimlane;html=1;childLayout=stackLayout;resizeParent=1;resizeParentMax=0;startSize=20;labelBackgroundColor=none;fillColor=#0050ef;strokeColor=#001DBC;fontColor=#ffffff;" parent="1" vertex="1">
                    <mxGeometry x="850" y="130" width="960" height="180" as="geometry">
                        <mxRectangle x="110" y="290" width="60" height="20" as="alternateBounds"/>
                    </mxGeometry>
                </mxCell>
                <mxCell id="747YwQ7zbLFgy_TnoXMY-28" value="Attr ID (index)" style="swimlane;html=1;startSize=20;swimlaneFillColor=#FFE6CC;fillColor=#FFE6CC;fontColor=#000000;strokeColor=#D79B00;" parent="747YwQ7zbLFgy_TnoXMY-27" vertex="1">
                    <mxGeometry y="20" width="120" height="160" as="geometry">
                        <mxRectangle y="20" width="70" height="460" as="alternateBounds"/>
                    </mxGeometry>
                </mxCell>
                <mxCell id="747YwQ7zbLFgy_TnoXMY-49" value="1" style="text;html=1;resizable=0;points=[];autosize=1;align=left;verticalAlign=top;spacingTop=-4;fontColor=#000000;" parent="747YwQ7zbLFgy_TnoXMY-28" vertex="1">
                    <mxGeometry x="50" y="30" width="20" height="20" as="geometry"/>
                </mxCell>
                <mxCell id="747YwQ7zbLFgy_TnoXMY-50" value="2" style="text;html=1;resizable=0;points=[];autosize=1;align=left;verticalAlign=top;spacingTop=-4;fontColor=#000000;" parent="747YwQ7zbLFgy_TnoXMY-28" vertex="1">
                    <mxGeometry x="50" y="55" width="20" height="20" as="geometry"/>
                </mxCell>
                <mxCell id="747YwQ7zbLFgy_TnoXMY-51" value="3" style="text;html=1;resizable=0;points=[];autosize=1;align=left;verticalAlign=top;spacingTop=-4;fontColor=#000000;" parent="747YwQ7zbLFgy_TnoXMY-28" vertex="1">
                    <mxGeometry x="50" y="80" width="20" height="20" as="geometry"/>
                </mxCell>
                <mxCell id="747YwQ7zbLFgy_TnoXMY-52" value="4" style="text;html=1;resizable=0;points=[];autosize=1;align=left;verticalAlign=top;spacingTop=-4;fontColor=#000000;" parent="747YwQ7zbLFgy_TnoXMY-28" vertex="1">
                    <mxGeometry x="50" y="105" width="20" height="20" as="geometry"/>
                </mxCell>
                <mxCell id="747YwQ7zbLFgy_TnoXMY-53" value="..." style="text;html=1;resizable=0;points=[];autosize=1;align=left;verticalAlign=top;spacingTop=-4;fontColor=#000000;" parent="747YwQ7zbLFgy_TnoXMY-28" vertex="1">
                    <mxGeometry x="50" y="130" width="30" height="20" as="geometry"/>
                </mxCell>
                <mxCell id="747YwQ7zbLFgy_TnoXMY-29" value="Name [0]" style="swimlane;html=1;startSize=20;fillColor=#dae8fc;strokeColor=#6c8ebf;swimlaneFillColor=#DAE8FC;fontColor=#000000;" parent="747YwQ7zbLFgy_TnoXMY-27" vertex="1">
                    <mxGeometry x="120" y="20" width="100" height="160" as="geometry"/>
                </mxCell>
                <mxCell id="747YwQ7zbLFgy_TnoXMY-54" value="Volume" style="text;html=1;resizable=0;points=[];autosize=1;align=left;verticalAlign=top;spacingTop=-4;fontColor=#000000;" parent="747YwQ7zbLFgy_TnoXMY-29" vertex="1">
                    <mxGeometry x="15" y="30" width="60" height="20" as="geometry"/>
                </mxCell>
                <mxCell id="747YwQ7zbLFgy_TnoXMY-55" value="Mass" style="text;html=1;resizable=0;points=[];autosize=1;align=left;verticalAlign=top;spacingTop=-4;fontColor=#000000;" parent="747YwQ7zbLFgy_TnoXMY-29" vertex="1">
                    <mxGeometry x="15" y="55" width="40" height="20" as="geometry"/>
                </mxCell>
                <mxCell id="747YwQ7zbLFgy_TnoXMY-56" value="LcIfcAuthor" style="text;html=1;resizable=0;points=[];autosize=1;align=left;verticalAlign=top;spacingTop=-4;fontColor=#000000;" parent="747YwQ7zbLFgy_TnoXMY-29" vertex="1">
                    <mxGeometry x="15" y="80" width="80" height="20" as="geometry"/>
                </mxCell>
                <mxCell id="747YwQ7zbLFgy_TnoXMY-57" value="child" style="text;html=1;resizable=0;points=[];autosize=1;align=left;verticalAlign=top;spacingTop=-4;fontColor=#000000;" parent="747YwQ7zbLFgy_TnoXMY-29" vertex="1">
                    <mxGeometry x="15" y="105" width="40" height="20" as="geometry"/>
                </mxCell>
                <mxCell id="747YwQ7zbLFgy_TnoXMY-58" value="..." style="text;html=1;resizable=0;points=[];autosize=1;align=left;verticalAlign=top;spacingTop=-4;fontColor=#000000;" parent="747YwQ7zbLFgy_TnoXMY-29" vertex="1">
                    <mxGeometry x="15" y="130" width="30" height="20" as="geometry"/>
                </mxCell>
                <mxCell id="747YwQ7zbLFgy_TnoXMY-30" value="Category [1]" style="swimlane;html=1;startSize=20;fillColor=#dae8fc;strokeColor=#6c8ebf;swimlaneFillColor=#DAE8FC;fontColor=#000000;" parent="747YwQ7zbLFgy_TnoXMY-27" vertex="1">
                    <mxGeometry x="220" y="20" width="110" height="160" as="geometry"/>
                </mxCell>
                <mxCell id="747YwQ7zbLFgy_TnoXMY-59" value="Physical" style="text;html=1;resizable=0;points=[];autosize=1;align=left;verticalAlign=top;spacingTop=-4;fontColor=#000000;" parent="747YwQ7zbLFgy_TnoXMY-30" vertex="1">
                    <mxGeometry x="20" y="30" width="60" height="20" as="geometry"/>
                </mxCell>
                <mxCell id="747YwQ7zbLFgy_TnoXMY-60" value="Physical" style="text;html=1;resizable=0;points=[];autosize=1;align=left;verticalAlign=top;spacingTop=-4;fontColor=#000000;" parent="747YwQ7zbLFgy_TnoXMY-30" vertex="1">
                    <mxGeometry x="20" y="55" width="60" height="20" as="geometry"/>
                </mxCell>
                <mxCell id="747YwQ7zbLFgy_TnoXMY-61" value="General" style="text;html=1;resizable=0;points=[];autosize=1;align=left;verticalAlign=top;spacingTop=-4;fontColor=#000000;" parent="747YwQ7zbLFgy_TnoXMY-30" vertex="1">
                    <mxGeometry x="20" y="80" width="60" height="20" as="geometry"/>
                </mxCell>
                <mxCell id="747YwQ7zbLFgy_TnoXMY-62" value="__child__" style="text;html=1;resizable=0;points=[];autosize=1;align=left;verticalAlign=top;spacingTop=-4;fontColor=#000000;" parent="747YwQ7zbLFgy_TnoXMY-30" vertex="1">
                    <mxGeometry x="20" y="105" width="70" height="20" as="geometry"/>
                </mxCell>
                <mxCell id="747YwQ7zbLFgy_TnoXMY-63" value="..." style="text;html=1;resizable=0;points=[];autosize=1;align=left;verticalAlign=top;spacingTop=-4;fontColor=#000000;" parent="747YwQ7zbLFgy_TnoXMY-30" vertex="1">
                    <mxGeometry x="20" y="130" width="30" height="20" as="geometry"/>
                </mxCell>
                <mxCell id="747YwQ7zbLFgy_TnoXMY-31" value="Data Type [2]" style="swimlane;html=1;startSize=20;fillColor=#dae8fc;strokeColor=#6c8ebf;swimlaneFillColor=#DAE8FC;fontColor=#000000;" parent="747YwQ7zbLFgy_TnoXMY-27" vertex="1">
                    <mxGeometry x="330" y="20" width="100" height="160" as="geometry"/>
                </mxCell>
                <mxCell id="747YwQ7zbLFgy_TnoXMY-64" value="double" style="text;html=1;resizable=0;points=[];autosize=1;align=left;verticalAlign=top;spacingTop=-4;fontColor=#000000;" parent="747YwQ7zbLFgy_TnoXMY-31" vertex="1">
                    <mxGeometry x="20" y="30" width="50" height="20" as="geometry"/>
                </mxCell>
                <mxCell id="747YwQ7zbLFgy_TnoXMY-65" value="double" style="text;html=1;resizable=0;points=[];autosize=1;align=left;verticalAlign=top;spacingTop=-4;fontColor=#000000;" parent="747YwQ7zbLFgy_TnoXMY-31" vertex="1">
                    <mxGeometry x="20" y="55" width="50" height="20" as="geometry"/>
                </mxCell>
                <mxCell id="747YwQ7zbLFgy_TnoXMY-66" value="string" style="text;html=1;resizable=0;points=[];autosize=1;align=left;verticalAlign=top;spacingTop=-4;fontColor=#000000;" parent="747YwQ7zbLFgy_TnoXMY-31" vertex="1">
                    <mxGeometry x="20" y="80" width="40" height="20" as="geometry"/>
                </mxCell>
                <mxCell id="747YwQ7zbLFgy_TnoXMY-67" value="DBID" style="text;html=1;resizable=0;points=[];autosize=1;align=left;verticalAlign=top;spacingTop=-4;fontColor=#000000;" parent="747YwQ7zbLFgy_TnoXMY-31" vertex="1">
                    <mxGeometry x="20" y="105" width="40" height="20" as="geometry"/>
                </mxCell>
                <mxCell id="747YwQ7zbLFgy_TnoXMY-68" value="..." style="text;html=1;resizable=0;points=[];autosize=1;align=left;verticalAlign=top;spacingTop=-4;fontColor=#000000;" parent="747YwQ7zbLFgy_TnoXMY-31" vertex="1">
                    <mxGeometry x="20" y="130" width="30" height="20" as="geometry"/>
                </mxCell>
                <mxCell id="747YwQ7zbLFgy_TnoXMY-32" value="Units&amp;nbsp;[3]" style="swimlane;html=1;startSize=20;fillColor=#dae8fc;strokeColor=#6c8ebf;swimlaneFillColor=#DAE8FC;fontColor=#000000;" parent="747YwQ7zbLFgy_TnoXMY-27" vertex="1">
                    <mxGeometry x="430" y="20" width="80" height="160" as="geometry"/>
                </mxCell>
                <mxCell id="747YwQ7zbLFgy_TnoXMY-69" value="m^3" style="text;html=1;resizable=0;points=[];autosize=1;align=left;verticalAlign=top;spacingTop=-4;fontColor=#000000;" parent="747YwQ7zbLFgy_TnoXMY-32" vertex="1">
                    <mxGeometry x="20" y="30" width="40" height="20" as="geometry"/>
                </mxCell>
                <mxCell id="747YwQ7zbLFgy_TnoXMY-70" value="kg" style="text;html=1;resizable=0;points=[];autosize=1;align=left;verticalAlign=top;spacingTop=-4;fontColor=#000000;" parent="747YwQ7zbLFgy_TnoXMY-32" vertex="1">
                    <mxGeometry x="20" y="55" width="30" height="20" as="geometry"/>
                </mxCell>
                <mxCell id="747YwQ7zbLFgy_TnoXMY-71" value="null" style="text;html=1;resizable=0;points=[];autosize=1;align=left;verticalAlign=top;spacingTop=-4;fontColor=#000000;" parent="747YwQ7zbLFgy_TnoXMY-32" vertex="1">
                    <mxGeometry x="20" y="80" width="30" height="20" as="geometry"/>
                </mxCell>
                <mxCell id="747YwQ7zbLFgy_TnoXMY-72" value="null" style="text;html=1;resizable=0;points=[];autosize=1;align=left;verticalAlign=top;spacingTop=-4;fontColor=#000000;" parent="747YwQ7zbLFgy_TnoXMY-32" vertex="1">
                    <mxGeometry x="20" y="105" width="30" height="20" as="geometry"/>
                </mxCell>
                <mxCell id="747YwQ7zbLFgy_TnoXMY-73" value="..." style="text;html=1;resizable=0;points=[];autosize=1;align=left;verticalAlign=top;spacingTop=-4;fontColor=#000000;" parent="747YwQ7zbLFgy_TnoXMY-32" vertex="1">
                    <mxGeometry x="20" y="130" width="30" height="20" as="geometry"/>
                </mxCell>
                <mxCell id="747YwQ7zbLFgy_TnoXMY-33" value="Description [4]" style="swimlane;html=1;startSize=20;fillColor=#dae8fc;strokeColor=#6c8ebf;swimlaneFillColor=#DAE8FC;fontColor=#000000;" parent="747YwQ7zbLFgy_TnoXMY-27" vertex="1">
                    <mxGeometry x="510" y="20" width="110" height="160" as="geometry"/>
                </mxCell>
                <mxCell id="747YwQ7zbLFgy_TnoXMY-74" value="null" style="text;html=1;resizable=0;points=[];autosize=1;align=left;verticalAlign=top;spacingTop=-4;fontColor=#000000;" parent="747YwQ7zbLFgy_TnoXMY-33" vertex="1">
                    <mxGeometry x="20" y="30" width="30" height="20" as="geometry"/>
                </mxCell>
                <mxCell id="747YwQ7zbLFgy_TnoXMY-75" value="null" style="text;html=1;resizable=0;points=[];autosize=1;align=left;verticalAlign=top;spacingTop=-4;fontColor=#000000;" parent="747YwQ7zbLFgy_TnoXMY-33" vertex="1">
                    <mxGeometry x="20" y="55" width="30" height="20" as="geometry"/>
                </mxCell>
                <mxCell id="747YwQ7zbLFgy_TnoXMY-76" value="null" style="text;html=1;resizable=0;points=[];autosize=1;align=left;verticalAlign=top;spacingTop=-4;fontColor=#000000;" parent="747YwQ7zbLFgy_TnoXMY-33" vertex="1">
                    <mxGeometry x="20" y="80" width="30" height="20" as="geometry"/>
                </mxCell>
                <mxCell id="747YwQ7zbLFgy_TnoXMY-77" value="null" style="text;html=1;resizable=0;points=[];autosize=1;align=left;verticalAlign=top;spacingTop=-4;fontColor=#000000;" parent="747YwQ7zbLFgy_TnoXMY-33" vertex="1">
                    <mxGeometry x="20" y="105" width="30" height="20" as="geometry"/>
                </mxCell>
                <mxCell id="747YwQ7zbLFgy_TnoXMY-78" value="..." style="text;html=1;resizable=0;points=[];autosize=1;align=left;verticalAlign=top;spacingTop=-4;fontColor=#000000;" parent="747YwQ7zbLFgy_TnoXMY-33" vertex="1">
                    <mxGeometry x="20" y="130" width="30" height="20" as="geometry"/>
                </mxCell>
                <mxCell id="747YwQ7zbLFgy_TnoXMY-34" value="Display Name [5]" style="swimlane;html=1;startSize=20;fillColor=#dae8fc;strokeColor=#6c8ebf;swimlaneFillColor=#DAE8FC;fontColor=#000000;" parent="747YwQ7zbLFgy_TnoXMY-27" vertex="1">
                    <mxGeometry x="620" y="20" width="120" height="160" as="geometry"/>
                </mxCell>
                <mxCell id="747YwQ7zbLFgy_TnoXMY-79" value="null" style="text;html=1;resizable=0;points=[];autosize=1;align=left;verticalAlign=top;spacingTop=-4;fontColor=#000000;" parent="747YwQ7zbLFgy_TnoXMY-34" vertex="1">
                    <mxGeometry x="20" y="30" width="30" height="20" as="geometry"/>
                </mxCell>
                <mxCell id="747YwQ7zbLFgy_TnoXMY-80" value="null" style="text;html=1;resizable=0;points=[];autosize=1;align=left;verticalAlign=top;spacingTop=-4;fontColor=#000000;" parent="747YwQ7zbLFgy_TnoXMY-34" vertex="1">
                    <mxGeometry x="20" y="55" width="30" height="20" as="geometry"/>
                </mxCell>
                <mxCell id="747YwQ7zbLFgy_TnoXMY-81" value="Author" style="text;html=1;resizable=0;points=[];autosize=1;align=left;verticalAlign=top;spacingTop=-4;fontColor=#000000;" parent="747YwQ7zbLFgy_TnoXMY-34" vertex="1">
                    <mxGeometry x="20" y="80" width="50" height="20" as="geometry"/>
                </mxCell>
                <mxCell id="747YwQ7zbLFgy_TnoXMY-82" value="null" style="text;html=1;resizable=0;points=[];autosize=1;align=left;verticalAlign=top;spacingTop=-4;fontColor=#000000;" parent="747YwQ7zbLFgy_TnoXMY-34" vertex="1">
                    <mxGeometry x="20" y="105" width="30" height="20" as="geometry"/>
                </mxCell>
                <mxCell id="747YwQ7zbLFgy_TnoXMY-83" value="..." style="text;html=1;resizable=0;points=[];autosize=1;align=left;verticalAlign=top;spacingTop=-4;fontColor=#000000;" parent="747YwQ7zbLFgy_TnoXMY-34" vertex="1">
                    <mxGeometry x="20" y="130" width="30" height="20" as="geometry"/>
                </mxCell>
                <mxCell id="747YwQ7zbLFgy_TnoXMY-35" value="Flags [6]" style="swimlane;html=1;startSize=20;fillColor=#dae8fc;strokeColor=#6c8ebf;swimlaneFillColor=#DAE8FC;fontColor=#000000;" parent="747YwQ7zbLFgy_TnoXMY-27" vertex="1">
                    <mxGeometry x="740" y="20" width="80" height="160" as="geometry"/>
                </mxCell>
                <mxCell id="747YwQ7zbLFgy_TnoXMY-84" value="..." style="text;html=1;resizable=0;points=[];autosize=1;align=left;verticalAlign=top;spacingTop=-4;fontColor=#000000;" parent="747YwQ7zbLFgy_TnoXMY-35" vertex="1">
                    <mxGeometry x="20" y="30" width="30" height="20" as="geometry"/>
                </mxCell>
                <mxCell id="747YwQ7zbLFgy_TnoXMY-85" value="..." style="text;html=1;resizable=0;points=[];autosize=1;align=left;verticalAlign=top;spacingTop=-4;fontColor=#000000;" parent="747YwQ7zbLFgy_TnoXMY-35" vertex="1">
                    <mxGeometry x="20" y="55" width="30" height="20" as="geometry"/>
                </mxCell>
                <mxCell id="747YwQ7zbLFgy_TnoXMY-86" value="..." style="text;html=1;resizable=0;points=[];autosize=1;align=left;verticalAlign=top;spacingTop=-4;fontColor=#000000;" parent="747YwQ7zbLFgy_TnoXMY-35" vertex="1">
                    <mxGeometry x="20" y="80" width="30" height="20" as="geometry"/>
                </mxCell>
                <mxCell id="747YwQ7zbLFgy_TnoXMY-87" value="..." style="text;html=1;resizable=0;points=[];autosize=1;align=left;verticalAlign=top;spacingTop=-4;fontColor=#000000;" parent="747YwQ7zbLFgy_TnoXMY-35" vertex="1">
                    <mxGeometry x="20" y="105" width="30" height="20" as="geometry"/>
                </mxCell>
                <mxCell id="747YwQ7zbLFgy_TnoXMY-88" value="..." style="text;html=1;resizable=0;points=[];autosize=1;align=left;verticalAlign=top;spacingTop=-4;fontColor=#000000;" parent="747YwQ7zbLFgy_TnoXMY-35" vertex="1">
                    <mxGeometry x="20" y="130" width="30" height="20" as="geometry"/>
                </mxCell>
                <mxCell id="747YwQ7zbLFgy_TnoXMY-36" value="Display Precision [7]" style="swimlane;html=1;startSize=20;fillColor=#dae8fc;strokeColor=#6c8ebf;swimlaneFillColor=#DAE8FC;fontColor=#000000;" parent="747YwQ7zbLFgy_TnoXMY-27" vertex="1">
                    <mxGeometry x="820" y="20" width="140" height="160" as="geometry"/>
                </mxCell>
                <mxCell id="747YwQ7zbLFgy_TnoXMY-89" value="3" style="text;html=1;resizable=0;points=[];autosize=1;align=left;verticalAlign=top;spacingTop=-4;fontColor=#000000;" parent="747YwQ7zbLFgy_TnoXMY-36" vertex="1">
                    <mxGeometry x="20" y="30" width="20" height="20" as="geometry"/>
                </mxCell>
                <mxCell id="747YwQ7zbLFgy_TnoXMY-90" value="17" style="text;html=1;resizable=0;points=[];autosize=1;align=left;verticalAlign=top;spacingTop=-4;fontColor=#000000;" parent="747YwQ7zbLFgy_TnoXMY-36" vertex="1">
                    <mxGeometry x="20" y="55" width="30" height="20" as="geometry"/>
                </mxCell>
                <mxCell id="747YwQ7zbLFgy_TnoXMY-91" value="null" style="text;html=1;resizable=0;points=[];autosize=1;align=left;verticalAlign=top;spacingTop=-4;fontColor=#000000;" parent="747YwQ7zbLFgy_TnoXMY-36" vertex="1">
                    <mxGeometry x="20" y="80" width="30" height="20" as="geometry"/>
                </mxCell>
                <mxCell id="747YwQ7zbLFgy_TnoXMY-92" value="null" style="text;html=1;resizable=0;points=[];autosize=1;align=left;verticalAlign=top;spacingTop=-4;fontColor=#000000;" parent="747YwQ7zbLFgy_TnoXMY-36" vertex="1">
                    <mxGeometry x="20" y="105" width="30" height="20" as="geometry"/>
                </mxCell>
                <mxCell id="747YwQ7zbLFgy_TnoXMY-93" value="..." style="text;html=1;resizable=0;points=[];autosize=1;align=left;verticalAlign=top;spacingTop=-4;fontColor=#000000;" parent="747YwQ7zbLFgy_TnoXMY-36" vertex="1">
                    <mxGeometry x="20" y="130" width="30" height="20" as="geometry"/>
                </mxCell>
                <mxCell id="747YwQ7zbLFgy_TnoXMY-94" value="objects_vals" style="swimlane;html=1;childLayout=stackLayout;resizeParent=1;resizeParentMax=0;startSize=20;fillColor=#0050ef;strokeColor=#001DBC;fontColor=#ffffff;" parent="1" vertex="1">
                    <mxGeometry x="850" y="340" width="240" height="180" as="geometry"/>
                </mxCell>
                <mxCell id="747YwQ7zbLFgy_TnoXMY-95" value="Value ID (index)" style="swimlane;html=1;startSize=20;fillColor=#ffe6cc;strokeColor=#d79b00;swimlaneFillColor=#FFE6CC;fontColor=#000000;" parent="747YwQ7zbLFgy_TnoXMY-94" vertex="1">
                    <mxGeometry y="20" width="120" height="160" as="geometry"/>
                </mxCell>
                <mxCell id="747YwQ7zbLFgy_TnoXMY-96" value="1" style="text;html=1;resizable=0;points=[];autosize=1;align=left;verticalAlign=top;spacingTop=-4;fontColor=#000000;" parent="747YwQ7zbLFgy_TnoXMY-95" vertex="1">
                    <mxGeometry x="45" y="30" width="20" height="20" as="geometry"/>
                </mxCell>
                <mxCell id="747YwQ7zbLFgy_TnoXMY-97" value="2" style="text;html=1;resizable=0;points=[];autosize=1;align=left;verticalAlign=top;spacingTop=-4;fontColor=#000000;" parent="747YwQ7zbLFgy_TnoXMY-95" vertex="1">
                    <mxGeometry x="45" y="55" width="20" height="20" as="geometry"/>
                </mxCell>
                <mxCell id="747YwQ7zbLFgy_TnoXMY-98" value="3" style="text;html=1;resizable=0;points=[];autosize=1;align=left;verticalAlign=top;spacingTop=-4;fontColor=#000000;" parent="747YwQ7zbLFgy_TnoXMY-95" vertex="1">
                    <mxGeometry x="45" y="80" width="20" height="20" as="geometry"/>
                </mxCell>
                <mxCell id="747YwQ7zbLFgy_TnoXMY-99" value="4" style="text;html=1;resizable=0;points=[];autosize=1;align=left;verticalAlign=top;spacingTop=-4;fontColor=#000000;" parent="747YwQ7zbLFgy_TnoXMY-95" vertex="1">
                    <mxGeometry x="45" y="105" width="20" height="20" as="geometry"/>
                </mxCell>
                <mxCell id="747YwQ7zbLFgy_TnoXMY-107" value="..." style="text;html=1;resizable=0;points=[];autosize=1;align=left;verticalAlign=top;spacingTop=-4;fontColor=#000000;" parent="747YwQ7zbLFgy_TnoXMY-95" vertex="1">
                    <mxGeometry x="45" y="130" width="30" height="20" as="geometry"/>
                </mxCell>
                <mxCell id="747YwQ7zbLFgy_TnoXMY-100" value="Value" style="swimlane;html=1;startSize=20;fillColor=#dae8fc;strokeColor=#6c8ebf;labelBackgroundColor=none;swimlaneFillColor=#DAE8FC;fontColor=#000000;" parent="747YwQ7zbLFgy_TnoXMY-94" vertex="1">
                    <mxGeometry x="120" y="20" width="120" height="160" as="geometry"/>
                </mxCell>
                <mxCell id="747YwQ7zbLFgy_TnoXMY-101" value="23.1" style="text;html=1;resizable=0;points=[];autosize=1;align=left;verticalAlign=top;spacingTop=-4;fontColor=#000000;" parent="747YwQ7zbLFgy_TnoXMY-100" vertex="1">
                    <mxGeometry x="20" y="30" width="40" height="20" as="geometry"/>
                </mxCell>
                <mxCell id="747YwQ7zbLFgy_TnoXMY-102" value="Steve" style="text;html=1;resizable=0;points=[];autosize=1;align=left;verticalAlign=top;spacingTop=-4;fontColor=#000000;" parent="747YwQ7zbLFgy_TnoXMY-100" vertex="1">
                    <mxGeometry x="20" y="55" width="50" height="20" as="geometry"/>
                </mxCell>
                <mxCell id="747YwQ7zbLFgy_TnoXMY-103" value="3" style="text;html=1;resizable=0;points=[];autosize=1;align=left;verticalAlign=top;spacingTop=-4;fontColor=#000000;" parent="747YwQ7zbLFgy_TnoXMY-100" vertex="1">
                    <mxGeometry x="20" y="80" width="20" height="20" as="geometry"/>
                </mxCell>
                <mxCell id="747YwQ7zbLFgy_TnoXMY-104" value="345.67" style="text;html=1;resizable=0;points=[];autosize=1;align=left;verticalAlign=top;spacingTop=-4;fontColor=#000000;" parent="747YwQ7zbLFgy_TnoXMY-100" vertex="1">
                    <mxGeometry x="20" y="105" width="50" height="20" as="geometry"/>
                </mxCell>
                <mxCell id="747YwQ7zbLFgy_TnoXMY-108" value="..." style="text;html=1;resizable=0;points=[];autosize=1;align=left;verticalAlign=top;spacingTop=-4;fontColor=#000000;" parent="747YwQ7zbLFgy_TnoXMY-100" vertex="1">
                    <mxGeometry x="20" y="130" width="30" height="20" as="geometry"/>
                </mxCell>
                <mxCell id="747YwQ7zbLFgy_TnoXMY-153" style="edgeStyle=orthogonalEdgeStyle;rounded=0;orthogonalLoop=1;jettySize=auto;html=1;entryX=0;entryY=0.5;entryDx=0;entryDy=0;exitX=0.25;exitY=1;exitDx=0;exitDy=0;" parent="1" source="747YwQ7zbLFgy_TnoXMY-131" target="747YwQ7zbLFgy_TnoXMY-14" edge="1">
                    <mxGeometry relative="1" as="geometry">
                        <mxPoint x="40" y="500" as="targetPoint"/>
                        <mxPoint x="60" y="385" as="sourcePoint"/>
                        <Array as="points">
                            <mxPoint x="60" y="650"/>
                        </Array>
                    </mxGeometry>
                </mxCell>
                <mxCell id="747YwQ7zbLFgy_TnoXMY-109" value="objects_offs" style="swimlane;html=1;childLayout=stackLayout;resizeParent=1;resizeParentMax=0;startSize=20;fillColor=#0050ef;strokeColor=#001DBC;fontColor=#ffffff;" parent="1" vertex="1">
                    <mxGeometry x="100" y="270" width="240" height="230" as="geometry"/>
                </mxCell>
                <mxCell id="747YwQ7zbLFgy_TnoXMY-110" value="objID (index)" style="swimlane;html=1;startSize=20;fillColor=#ffe6cc;strokeColor=#d79b00;swimlaneFillColor=#FFE6CC;fontColor=#000000;" parent="747YwQ7zbLFgy_TnoXMY-109" vertex="1">
                    <mxGeometry y="20" width="120" height="210" as="geometry"/>
                </mxCell>
                <mxCell id="747YwQ7zbLFgy_TnoXMY-111" value="1" style="text;html=1;resizable=0;points=[];autosize=1;align=left;verticalAlign=top;spacingTop=-4;fontColor=#000000;" parent="747YwQ7zbLFgy_TnoXMY-110" vertex="1">
                    <mxGeometry x="45" y="30" width="20" height="20" as="geometry"/>
                </mxCell>
                <mxCell id="747YwQ7zbLFgy_TnoXMY-112" value="2" style="text;html=1;resizable=0;points=[];autosize=1;align=left;verticalAlign=top;spacingTop=-4;fontColor=#000000;" parent="747YwQ7zbLFgy_TnoXMY-110" vertex="1">
                    <mxGeometry x="45" y="55" width="20" height="20" as="geometry"/>
                </mxCell>
                <mxCell id="747YwQ7zbLFgy_TnoXMY-113" value="3" style="text;html=1;resizable=0;points=[];autosize=1;align=left;verticalAlign=top;spacingTop=-4;fontColor=#000000;" parent="747YwQ7zbLFgy_TnoXMY-110" vertex="1">
                    <mxGeometry x="45" y="80" width="20" height="20" as="geometry"/>
                </mxCell>
                <mxCell id="747YwQ7zbLFgy_TnoXMY-114" value="..." style="text;html=1;resizable=0;points=[];autosize=1;align=left;verticalAlign=top;spacingTop=-4;fontColor=#000000;" parent="747YwQ7zbLFgy_TnoXMY-110" vertex="1">
                    <mxGeometry x="45" y="180" width="30" height="20" as="geometry"/>
                </mxCell>
                <mxCell id="747YwQ7zbLFgy_TnoXMY-136" value="4" style="text;html=1;resizable=0;points=[];autosize=1;align=left;verticalAlign=top;spacingTop=-4;fontColor=#000000;" parent="747YwQ7zbLFgy_TnoXMY-110" vertex="1">
                    <mxGeometry x="45" y="110" width="20" height="20" as="geometry"/>
                </mxCell>
                <mxCell id="747YwQ7zbLFgy_TnoXMY-137" value="5" style="text;html=1;resizable=0;points=[];autosize=1;align=left;verticalAlign=top;spacingTop=-4;fontColor=#000000;" parent="747YwQ7zbLFgy_TnoXMY-110" vertex="1">
                    <mxGeometry x="45" y="135" width="20" height="20" as="geometry"/>
                </mxCell>
                <mxCell id="747YwQ7zbLFgy_TnoXMY-138" value="6" style="text;html=1;resizable=0;points=[];autosize=1;align=left;verticalAlign=top;spacingTop=-4;fontColor=#000000;" parent="747YwQ7zbLFgy_TnoXMY-110" vertex="1">
                    <mxGeometry x="45" y="160" width="20" height="20" as="geometry"/>
                </mxCell>
                <mxCell id="747YwQ7zbLFgy_TnoXMY-115" value="avs Index" style="swimlane;html=1;startSize=20;fillColor=#dae8fc;strokeColor=#6c8ebf;labelBackgroundColor=none;swimlaneFillColor=#DAE8FC;fontColor=#000000;" parent="747YwQ7zbLFgy_TnoXMY-109" vertex="1">
                    <mxGeometry x="120" y="20" width="120" height="210" as="geometry"/>
                </mxCell>
                <mxCell id="747YwQ7zbLFgy_TnoXMY-116" value="0" style="text;html=1;resizable=0;points=[];autosize=1;align=left;verticalAlign=top;spacingTop=-4;fontColor=#000000;" parent="747YwQ7zbLFgy_TnoXMY-115" vertex="1">
                    <mxGeometry x="20" y="30" width="20" height="20" as="geometry"/>
                </mxCell>
                <mxCell id="747YwQ7zbLFgy_TnoXMY-117" value="15" style="text;html=1;resizable=0;points=[];autosize=1;align=left;verticalAlign=top;spacingTop=-4;fontColor=#000000;" parent="747YwQ7zbLFgy_TnoXMY-115" vertex="1">
                    <mxGeometry x="20" y="55" width="30" height="20" as="geometry"/>
                </mxCell>
                <mxCell id="747YwQ7zbLFgy_TnoXMY-118" value="38" style="text;html=1;resizable=0;points=[];autosize=1;align=left;verticalAlign=top;spacingTop=-4;fontColor=#000000;" parent="747YwQ7zbLFgy_TnoXMY-115" vertex="1">
                    <mxGeometry x="20" y="82.5" width="30" height="20" as="geometry"/>
                </mxCell>
                <mxCell id="747YwQ7zbLFgy_TnoXMY-119" value="..." style="text;html=1;resizable=0;points=[];autosize=1;align=left;verticalAlign=top;spacingTop=-4;fontColor=#000000;" parent="747YwQ7zbLFgy_TnoXMY-115" vertex="1">
                    <mxGeometry x="20" y="180" width="30" height="20" as="geometry"/>
                </mxCell>
                <mxCell id="747YwQ7zbLFgy_TnoXMY-139" value="106" style="text;html=1;resizable=0;points=[];autosize=1;align=left;verticalAlign=top;spacingTop=-4;fontColor=#000000;" parent="747YwQ7zbLFgy_TnoXMY-115" vertex="1">
                    <mxGeometry x="20" y="109" width="40" height="20" as="geometry"/>
                </mxCell>
                <mxCell id="747YwQ7zbLFgy_TnoXMY-140" value="170" style="text;html=1;resizable=0;points=[];autosize=1;align=left;verticalAlign=top;spacingTop=-4;fontColor=#000000;" parent="747YwQ7zbLFgy_TnoXMY-115" vertex="1">
                    <mxGeometry x="20" y="135" width="40" height="20" as="geometry"/>
                </mxCell>
                <mxCell id="747YwQ7zbLFgy_TnoXMY-141" value="197" style="text;html=1;resizable=0;points=[];autosize=1;align=left;verticalAlign=top;spacingTop=-4;fontColor=#000000;" parent="747YwQ7zbLFgy_TnoXMY-115" vertex="1">
                    <mxGeometry x="20" y="160" width="40" height="20" as="geometry"/>
                </mxCell>
                <mxCell id="747YwQ7zbLFgy_TnoXMY-147" style="edgeStyle=orthogonalEdgeStyle;rounded=0;orthogonalLoop=1;jettySize=auto;html=1;entryX=0;entryY=0.25;entryDx=0;entryDy=0;strokeWidth=2;strokeColor=#CC0000;" parent="1" target="747YwQ7zbLFgy_TnoXMY-121" edge="1">
                    <mxGeometry relative="1" as="geometry">
                        <mxPoint x="400" y="80" as="targetPoint"/>
                        <mxPoint x="260" y="330" as="sourcePoint"/>
                        <Array as="points">
                            <mxPoint x="395" y="330"/>
                            <mxPoint x="395" y="215"/>
                        </Array>
                    </mxGeometry>
                </mxCell>
                <mxCell id="747YwQ7zbLFgy_TnoXMY-120" value="objects_avs" style="swimlane;html=1;childLayout=stackLayout;resizeParent=1;resizeParentMax=0;startSize=20;fillColor=#0050ef;strokeColor=#001DBC;fontColor=#ffffff;" parent="1" vertex="1">
                    <mxGeometry x="450" y="130" width="240" height="280" as="geometry"/>
                </mxCell>
                <mxCell id="747YwQ7zbLFgy_TnoXMY-121" value="Index" style="swimlane;html=1;startSize=20;fillColor=#ffe6cc;strokeColor=#d79b00;swimlaneFillColor=#FFE6CC;fontColor=#000000;" parent="747YwQ7zbLFgy_TnoXMY-120" vertex="1">
                    <mxGeometry y="20" width="120" height="260" as="geometry"/>
                </mxCell>
                <mxCell id="747YwQ7zbLFgy_TnoXMY-122" value="0" style="text;html=1;resizable=0;points=[];autosize=1;align=left;verticalAlign=top;spacingTop=-4;fontColor=#000000;" parent="747YwQ7zbLFgy_TnoXMY-121" vertex="1">
                    <mxGeometry x="45" y="30" width="20" height="20" as="geometry"/>
                </mxCell>
                <mxCell id="747YwQ7zbLFgy_TnoXMY-123" value="1" style="text;html=1;resizable=0;points=[];autosize=1;align=left;verticalAlign=top;spacingTop=-4;fontColor=#000000;" parent="747YwQ7zbLFgy_TnoXMY-121" vertex="1">
                    <mxGeometry x="45" y="55" width="20" height="20" as="geometry"/>
                </mxCell>
                <mxCell id="747YwQ7zbLFgy_TnoXMY-124" value="2" style="text;html=1;resizable=0;points=[];autosize=1;align=left;verticalAlign=top;spacingTop=-4;fontColor=#000000;" parent="747YwQ7zbLFgy_TnoXMY-121" vertex="1">
                    <mxGeometry x="45" y="80" width="20" height="20" as="geometry"/>
                </mxCell>
                <mxCell id="747YwQ7zbLFgy_TnoXMY-125" value="..." style="text;html=1;resizable=0;points=[];autosize=1;align=left;verticalAlign=top;spacingTop=-4;fontColor=#000000;" parent="747YwQ7zbLFgy_TnoXMY-121" vertex="1">
                    <mxGeometry x="40" y="230" width="30" height="20" as="geometry"/>
                </mxCell>
                <mxCell id="747YwQ7zbLFgy_TnoXMY-159" value="3" style="text;html=1;resizable=0;points=[];autosize=1;align=left;verticalAlign=top;spacingTop=-4;fontColor=#000000;" parent="747YwQ7zbLFgy_TnoXMY-121" vertex="1">
                    <mxGeometry x="45" y="110" width="20" height="20" as="geometry"/>
                </mxCell>
                <mxCell id="747YwQ7zbLFgy_TnoXMY-160" value="4" style="text;html=1;resizable=0;points=[];autosize=1;align=left;verticalAlign=top;spacingTop=-4;fontColor=#000000;" parent="747YwQ7zbLFgy_TnoXMY-121" vertex="1">
                    <mxGeometry x="45" y="135" width="20" height="20" as="geometry"/>
                </mxCell>
                <mxCell id="747YwQ7zbLFgy_TnoXMY-161" value="5" style="text;html=1;resizable=0;points=[];autosize=1;align=left;verticalAlign=top;spacingTop=-4;fontColor=#000000;" parent="747YwQ7zbLFgy_TnoXMY-121" vertex="1">
                    <mxGeometry x="45" y="160" width="20" height="20" as="geometry"/>
                </mxCell>
                <mxCell id="747YwQ7zbLFgy_TnoXMY-162" value="6" style="text;html=1;resizable=0;points=[];autosize=1;align=left;verticalAlign=top;spacingTop=-4;fontColor=#000000;" parent="747YwQ7zbLFgy_TnoXMY-121" vertex="1">
                    <mxGeometry x="45" y="185" width="20" height="20" as="geometry"/>
                </mxCell>
                <mxCell id="747YwQ7zbLFgy_TnoXMY-163" value="7" style="text;html=1;resizable=0;points=[];autosize=1;align=left;verticalAlign=top;spacingTop=-4;fontColor=#000000;" parent="747YwQ7zbLFgy_TnoXMY-121" vertex="1">
                    <mxGeometry x="45" y="210" width="20" height="20" as="geometry"/>
                </mxCell>
                <mxCell id="747YwQ7zbLFgy_TnoXMY-126" value="Attr/Value ID pairs" style="swimlane;html=1;startSize=20;fillColor=#dae8fc;strokeColor=#6c8ebf;labelBackgroundColor=none;swimlaneFillColor=#DAE8FC;fontColor=#000000;" parent="747YwQ7zbLFgy_TnoXMY-120" vertex="1">
                    <mxGeometry x="120" y="20" width="120" height="260" as="geometry"/>
                </mxCell>
                <mxCell id="747YwQ7zbLFgy_TnoXMY-127" value="1" style="text;html=1;resizable=0;points=[];autosize=1;align=left;verticalAlign=top;spacingTop=-4;fontColor=#000000;" parent="747YwQ7zbLFgy_TnoXMY-126" vertex="1">
                    <mxGeometry x="20" y="30" width="20" height="20" as="geometry"/>
                </mxCell>
                <mxCell id="747YwQ7zbLFgy_TnoXMY-128" value="4" style="text;html=1;resizable=0;points=[];autosize=1;align=left;verticalAlign=top;spacingTop=-4;fontColor=#000000;" parent="747YwQ7zbLFgy_TnoXMY-126" vertex="1">
                    <mxGeometry x="20" y="55" width="20" height="20" as="geometry"/>
                </mxCell>
                <mxCell id="747YwQ7zbLFgy_TnoXMY-129" value="3" style="text;html=1;resizable=0;points=[];autosize=1;align=left;verticalAlign=top;spacingTop=-4;fontColor=#000000;" parent="747YwQ7zbLFgy_TnoXMY-126" vertex="1">
                    <mxGeometry x="20" y="80" width="20" height="20" as="geometry"/>
                </mxCell>
                <mxCell id="747YwQ7zbLFgy_TnoXMY-130" value="..." style="text;html=1;resizable=0;points=[];autosize=1;align=left;verticalAlign=top;spacingTop=-4;fontColor=#000000;" parent="747YwQ7zbLFgy_TnoXMY-126" vertex="1">
                    <mxGeometry x="20" y="230" width="30" height="20" as="geometry"/>
                </mxCell>
                <mxCell id="747YwQ7zbLFgy_TnoXMY-164" value="2" style="text;html=1;resizable=0;points=[];autosize=1;align=left;verticalAlign=top;spacingTop=-4;fontColor=#000000;" parent="747YwQ7zbLFgy_TnoXMY-126" vertex="1">
                    <mxGeometry x="20" y="110" width="20" height="20" as="geometry"/>
                </mxCell>
                <mxCell id="747YwQ7zbLFgy_TnoXMY-165" value="4" style="text;html=1;resizable=0;points=[];autosize=1;align=left;verticalAlign=top;spacingTop=-4;fontColor=#000000;" parent="747YwQ7zbLFgy_TnoXMY-126" vertex="1">
                    <mxGeometry x="20" y="135" width="20" height="20" as="geometry"/>
                </mxCell>
                <mxCell id="747YwQ7zbLFgy_TnoXMY-166" value="3" style="text;html=1;resizable=0;points=[];autosize=1;align=left;verticalAlign=top;spacingTop=-4;direction=south;fontColor=#000000;" parent="747YwQ7zbLFgy_TnoXMY-126" vertex="1">
                    <mxGeometry x="20" y="160" width="20" height="20" as="geometry"/>
                </mxCell>
                <mxCell id="747YwQ7zbLFgy_TnoXMY-167" value="2" style="text;html=1;resizable=0;points=[];autosize=1;align=left;verticalAlign=top;spacingTop=-4;fontColor=#000000;" parent="747YwQ7zbLFgy_TnoXMY-126" vertex="1">
                    <mxGeometry x="20" y="185" width="20" height="20" as="geometry"/>
                </mxCell>
                <mxCell id="747YwQ7zbLFgy_TnoXMY-168" value="1" style="text;html=1;resizable=0;points=[];autosize=1;align=left;verticalAlign=top;spacingTop=-4;direction=south;fontColor=#000000;" parent="747YwQ7zbLFgy_TnoXMY-126" vertex="1">
                    <mxGeometry x="20" y="210" width="20" height="20" as="geometry"/>
                </mxCell>
                <mxCell id="747YwQ7zbLFgy_TnoXMY-173" style="edgeStyle=orthogonalEdgeStyle;rounded=0;orthogonalLoop=1;jettySize=auto;html=1;exitX=0.5;exitY=1;exitDx=0;exitDy=0;entryX=0;entryY=0.5;entryDx=0;entryDy=0;" parent="1" source="747YwQ7zbLFgy_TnoXMY-131" target="747YwQ7zbLFgy_TnoXMY-110" edge="1">
                    <mxGeometry relative="1" as="geometry">
                        <Array as="points">
                            <mxPoint x="80" y="110"/>
                            <mxPoint x="80" y="395"/>
                        </Array>
                    </mxGeometry>
                </mxCell>
                <mxCell id="747YwQ7zbLFgy_TnoXMY-131" value="dbID" style="rounded=0;whiteSpace=wrap;html=1;labelBackgroundColor=none;fillColor=#FFE6CC;fontColor=#000000;" parent="1" vertex="1">
                    <mxGeometry x="30" y="50" width="120" height="60" as="geometry"/>
                </mxCell>
                <mxCell id="747YwQ7zbLFgy_TnoXMY-144" value="Index Offset Starts at objID" style="text;html=1;resizable=0;points=[];autosize=1;align=left;verticalAlign=top;spacingTop=-4;" parent="1" vertex="1">
                    <mxGeometry x="90" y="130" width="160" height="20" as="geometry"/>
                </mxCell>
                <mxCell id="747YwQ7zbLFgy_TnoXMY-145" value="Index Offset Ends at objID + 1" style="text;html=1;resizable=0;points=[];autosize=1;align=left;verticalAlign=top;spacingTop=-4;" parent="1" vertex="1">
                    <mxGeometry x="89" y="150" width="180" height="20" as="geometry"/>
                </mxCell>
                <mxCell id="747YwQ7zbLFgy_TnoXMY-148" style="edgeStyle=orthogonalEdgeStyle;rounded=0;orthogonalLoop=1;jettySize=auto;html=1;strokeWidth=2;strokeColor=#CC0000;" parent="1" edge="1">
                    <mxGeometry relative="1" as="geometry">
                        <mxPoint x="450" y="270" as="targetPoint"/>
                        <mxPoint x="260" y="355" as="sourcePoint"/>
                        <Array as="points">
                            <mxPoint x="420" y="355"/>
                            <mxPoint x="420" y="270"/>
                        </Array>
                    </mxGeometry>
                </mxCell>
                <mxCell id="747YwQ7zbLFgy_TnoXMY-150" value="x2&lt;br&gt;" style="text;html=1;resizable=0;points=[];autosize=1;align=left;verticalAlign=top;spacingTop=-4;" parent="1" vertex="1">
                    <mxGeometry x="370" y="310" width="30" height="20" as="geometry"/>
                </mxCell>
                <mxCell id="747YwQ7zbLFgy_TnoXMY-151" value="x2&lt;br&gt;" style="text;html=1;resizable=0;points=[];autosize=1;align=left;verticalAlign=top;spacingTop=-4;" parent="1" vertex="1">
                    <mxGeometry x="400" y="330" width="30" height="20" as="geometry"/>
                </mxCell>
                <mxCell id="747YwQ7zbLFgy_TnoXMY-155" value="0" style="text;html=1;resizable=0;points=[];autosize=1;align=left;verticalAlign=top;spacingTop=-4;" parent="1" vertex="1">
                    <mxGeometry x="410" y="190" width="20" height="20" as="geometry"/>
                </mxCell>
                <mxCell id="747YwQ7zbLFgy_TnoXMY-156" value="30" style="text;html=1;resizable=0;points=[];autosize=1;align=left;verticalAlign=top;spacingTop=-4;" parent="1" vertex="1">
                    <mxGeometry x="415" y="250" width="30" height="20" as="geometry"/>
                </mxCell>
                <mxCell id="747YwQ7zbLFgy_TnoXMY-169" style="edgeStyle=orthogonalEdgeStyle;rounded=0;orthogonalLoop=1;jettySize=auto;html=1;exitX=1.1;exitY=0.55;exitDx=0;exitDy=0;entryX=0;entryY=0.5;entryDx=0;entryDy=0;exitPerimeter=0;strokeWidth=2;strokeColor=#CC0000;" parent="1" source="747YwQ7zbLFgy_TnoXMY-127" target="747YwQ7zbLFgy_TnoXMY-27" edge="1">
                    <mxGeometry relative="1" as="geometry">
                        <Array as="points">
                            <mxPoint x="790" y="191"/>
                            <mxPoint x="790" y="220"/>
                        </Array>
                    </mxGeometry>
                </mxCell>
                <mxCell id="747YwQ7zbLFgy_TnoXMY-170" style="edgeStyle=orthogonalEdgeStyle;rounded=0;orthogonalLoop=1;jettySize=auto;html=1;exitX=1.05;exitY=0.55;exitDx=0;exitDy=0;entryX=0;entryY=0.5;entryDx=0;entryDy=0;exitPerimeter=0;strokeWidth=2;strokeColor=#CC0000;" parent="1" source="747YwQ7zbLFgy_TnoXMY-128" target="747YwQ7zbLFgy_TnoXMY-94" edge="1">
                    <mxGeometry relative="1" as="geometry">
                        <Array as="points">
                            <mxPoint x="740" y="216"/>
                            <mxPoint x="740" y="430"/>
                        </Array>
                    </mxGeometry>
                </mxCell>
            </root>
        </mxGraphModel>
    </diagram>
</mxfile>